HIERARCHY
ROOT hip
{
  OFFSET 0 0 0
  CHANNELS 6 Xposition Yposition Zposition Zrotation Yrotation Xrotation
  JOINT abdomen
  {
    OFFSET 0 20.6881 -0.73152
    CHANNELS 3 Zrotation Xrotation Yrotation
    JOINT chest
    {
      OFFSET 0 11.7043 -0.48768
      CHANNELS 3 Zrotation Xrotation Yrotation
      JOINT neck
      {
        OFFSET 0 22.1894 -2.19456
        CHANNELS 3 Zrotation Xrotation Yrotation
        JOINT head
        {
          OFFSET -0.24384 7.07133 1.2192
          CHANNELS 3 Zrotation Xrotation Yrotation
          JOINT leftEye
          {
            OFFSET 4.14528 8.04674 8.04672
            CHANNELS 3 Zrotation Xrotation Yrotation
            End Site
            {
              OFFSET 1 0 0
            }
          }
          JOINT rightEye
          {
            OFFSET -3.6576 8.04674 8.04672
            CHANNELS 3 Zrotation Xrotation Yrotation
            End Site
            {
              OFFSET 1 0 0
            }
          }
        }
      }
      JOINT rCollar
      {
        OFFSET -2.68224 19.2634 -4.8768
        CHANNELS 3 Zrotation Xrotation Yrotation
        JOINT rShldr
        {
          OFFSET -8.77824 -1.95073 1.46304
          CHANNELS 3 Zrotation Xrotation Yrotation
          JOINT rForeArm
          {
            OFFSET -28.1742 -1.7115 0.48768
            CHANNELS 3 Zrotation Xrotation Yrotation
            JOINT rHand
            {
              OFFSET -22.5879 0.773209 7.07136
              CHANNELS 3 Zrotation Xrotation Yrotation
              JOINT rThumb1
              {
                OFFSET -1.2192 -0.487915 3.41376
                CHANNELS 3 Zrotation Xrotation Yrotation
                JOINT rThumb2
                {
                  OFFSET -3.37035 -0.52449 3.41376
                  CHANNELS 3 Zrotation Xrotation Yrotation
                  End Site
                  {
                    OFFSET -1.78271 -1.18214 1.43049
                  }
                }
              }
              JOINT rIndex1
              {
                OFFSET -7.75947 0.938293 5.60832
                CHANNELS 3 Zrotation Xrotation Yrotation
                JOINT rIndex2
                {
                  OFFSET -2.54057 -0.884171 1.56538
                  CHANNELS 3 Zrotation Xrotation Yrotation
                  End Site
                  {
                    OFFSET -1.62519 -0.234802 1.16502
                  }
                }
              }
              JOINT rMid1
              {
                OFFSET -8.24714 1.18213 3.41376
                CHANNELS 3 Zrotation Xrotation Yrotation
                JOINT rMid2
                {
                  OFFSET -3.10165 -0.590103 1.0647
                  CHANNELS 3 Zrotation Xrotation Yrotation
                  End Site
                  {
                    OFFSET -2.48547 -0.328903 0.83742
                  }
                }
              }
              JOINT rRing1
              {
                OFFSET -8.82822 0.546677 1.51678
                CHANNELS 3 Zrotation Xrotation Yrotation
                JOINT rRing2
                {
                  OFFSET -2.60934 -0.819778 -0.0198488
                  CHANNELS 3 Zrotation Xrotation Yrotation
                  End Site
                  {
                    OFFSET -2.33842 -0.294052 0.168128
                  }
                }
              }
              JOINT rPinky1
              {
                OFFSET -8.27202 -0.0477905 -0.4584
                CHANNELS 3 Zrotation Xrotation Yrotation
                JOINT rPinky2
                {
                  OFFSET -1.82734 -0.647385 -0.700984
                  CHANNELS 3 Zrotation Xrotation Yrotation
                  End Site
                  {
                    OFFSET -1.69225 -0.51767 -0.607171
                  }
                }
              }
            }
          }
        }
      }
      JOINT lCollar
      {
        OFFSET 2.68224 19.2634 -4.8768
        CHANNELS 3 Zrotation Xrotation Yrotation
        JOINT lShldr
        {
          OFFSET 8.77824 -1.95073 1.46304
          CHANNELS 3 Zrotation Xrotation Yrotation
          JOINT lForeArm
          {
            OFFSET 28.1742 -1.7115 0.48768
            CHANNELS 3 Zrotation Xrotation Yrotation
            JOINT lHand
            {
              OFFSET 22.5879 0.773209 7.07136
              CHANNELS 3 Zrotation Xrotation Yrotation
              JOINT lThumb1
              {
                OFFSET 1.2192 -0.487915 3.41376
                CHANNELS 3 Zrotation Xrotation Yrotation
                JOINT lThumb2
                {
                  OFFSET 3.37035 -0.52449 3.41376
                  CHANNELS 3 Zrotation Xrotation Yrotation
                  End Site
                  {
                    OFFSET 1.78271 -1.18214 1.43049
                  }
                }
              }
              JOINT lIndex1
              {
                OFFSET 7.75947 0.938293 5.60832
                CHANNELS 3 Zrotation Xrotation Yrotation
                JOINT lIndex2
                {
                  OFFSET 2.54057 -0.884171 1.56538
                  CHANNELS 3 Zrotation Xrotation Yrotation
                  End Site
                  {
                    OFFSET 1.62519 -0.234802 1.16502
                  }
                }
              }
              JOINT lMid1
              {
                OFFSET 8.24714 1.18213 3.41376
                CHANNELS 3 Zrotation Xrotation Yrotation
                JOINT lMid2
                {
                  OFFSET 3.10165 -0.590103 1.0647
                  CHANNELS 3 Zrotation Xrotation Yrotation
                  End Site
                  {
                    OFFSET 2.48547 -0.328903 0.83742
                  }
                }
              }
              JOINT lRing1
              {
                OFFSET 8.82822 0.546677 1.51678
                CHANNELS 3 Zrotation Xrotation Yrotation
                JOINT lRing2
                {
                  OFFSET 2.60934 -0.819778 -0.0198488
                  CHANNELS 3 Zrotation Xrotation Yrotation
                  End Site
                  {
                    OFFSET 2.33842 -0.294052 0.168128
                  }
                }
              }
              JOINT lPinky1
              {
                OFFSET 8.27202 -0.0477905 -0.4584
                CHANNELS 3 Zrotation Xrotation Yrotation
                JOINT lPinky2
                {
                  OFFSET 1.82734 -0.647385 -0.700984
                  CHANNELS 3 Zrotation Xrotation Yrotation
                  End Site
                  {
                    OFFSET 1.69225 -0.51767 -0.607171
                  }
                }
              }
            }
          }
        }
      }
    }
  }
  JOINT rButtock
  {
    OFFSET -8.77824 4.35084 1.2192
    CHANNELS 3 Zrotation Xrotation Yrotation
    JOINT rThigh
    {
      OFFSET 0 -1.70687 -2.19456
      CHANNELS 3 Zrotation Xrotation Yrotation
      JOINT rShin
      {
        OFFSET 0 -36.8199 0.73152
        CHANNELS 3 Zrotation Xrotation Yrotation
        JOINT rFoot
        {
          OFFSET 0.73152 -45.1104 -5.12064
          CHANNELS 3 Zrotation Xrotation Yrotation
          End Site
          {
            OFFSET -1.1221 -3.69964 12.103
          }
        }
      }
    }
  }
  JOINT lButtock
  {
    OFFSET 8.77824 4.35084 1.2192
    CHANNELS 3 Zrotation Xrotation Yrotation
    JOINT lThigh
    {
      OFFSET 0 -1.70687 -2.19456
      CHANNELS 3 Zrotation Xrotation Yrotation
      JOINT lShin
      {
        OFFSET 0 -36.8199 0.73152
        CHANNELS 3 Zrotation Xrotation Yrotation
        JOINT lFoot
        {
          OFFSET -0.73152 -45.1104 -5.12064
          CHANNELS 3 Zrotation Xrotation Yrotation
          End Site
          {
            OFFSET 1.1221 -3.69964 12.103
          }
        }
      }
    }
  }
}
MOTION
Frames:	8
Frame Time:	0.00833333
97.869 85.1388 128.969 0.0 0.0 0.0 0.410561 -0.00336362 0.0117798 0.11345 -0.00539417 0.0196579 -1.5271e-15 7.95139e-16 -3.10601e-17 -4.58447e-15 9.54166e-15 -1.10263e-16 -0.0 0.0 0.0 -0.0 0.0 0.0 -7.46819e-16 -4.65902e-18 9.93923e-17 -1.39453e-14 -1.49089e-16 5.96354e-16 -2.74671e-13 7.87187e-14 1.59028e-14 -3.1532e-12 -1.06723e-13 -7.63333e-14 -7.43791e-12 -6.08297e-14 -1.33583e-13 -1.28586e-11 -1.08139e-13 -2.38542e-13 -7.43574e-12 -6.08281e-14 -1.36764e-13 7.73091 5.47488 0.417314 -7.43644e-12 -6.08281e-14 -1.36764e-13 2.90554 0.965183 0.102902 -7.42778e-12 -6.06293e-14 -1.39149e-13 10.2786 0.731801 0.0259123 -7.44468e-12 -5.84427e-14 -1.33583e-13 2.22167 -0.733487 -0.20892 -8.43508e-16 -5.04727e-18 -9.93923e-17 -1.78716e-14 -2.60905e-16 -1.39149e-15 -2.75913e-13 -8.60738e-14 -2.22639e-14 -3.14814e-12 6.22693e-14 -4.13472e-14 -7.42556e-12 -4.99324e-14 -1.49486e-13 -1.28065e-11 -8.5875e-14 -2.49674e-13 -7.42938e-12 -5.12864e-14 -1.39944e-13 -7.73091 5.47488 -0.417314 -7.4254e-12 -5.00937e-14 -1.46306e-13 -2.90554 0.965183 -0.102902 -7.42778e-12 -5.02925e-14 -1.43125e-13 -10.2786 0.731801 -0.0259123 -7.41944e-12 -4.73108e-14 -1.43125e-13 -2.22167 -0.733487 0.20892 -2.03217e-16 0.0 -3.88251e-19 0.771188 -4.17174 -0.0657016 -0.00265902 2.0054 -0.0183075 -0.462434 2.16694 0.0961821 2.03217e-16 0.0 3.88251e-19 -0.142652 -2.55999 0.0260558 0.00715898 -0.914028 0.0621347 0.45317 3.47455 -0.121138
98.1348 83.7155 125.633 178.2 -3.1111 -153.277 -0.963398 -8.68898 -0.920633 1.00983 4.07392 -0.394574 -0.330117 3.20895 -0.557448 2.09894 -3.79249 -1.13276 -0.0 0.0 0.0 -0.0 0.0 0.0 2.56239e-14 1.83711e-14 7.17826e-14 22.9302 1.88757 -1.95635 -5.17 -2.57546 7.81416 0.00196397 -0.983927 -0.138208 9.59186e-11 6.32288e-11 6.98105e-10 1.66054e-10 1.10692e-10 1.20928e-09 9.59284e-11 6.3227e-11 6.981e-10 7.73091 5.47488 0.417314 9.59192e-11 6.32282e-11 6.98103e-10 2.90554 0.965183 0.102902 9.59256e-11 6.32287e-11 6.981e-10 10.2786 0.731801 0.0259123 9.59118e-11 6.32323e-11 6.98105e-10 2.22167 -0.733487 -0.20892 2.5481e-14 1.83714e-14 7.16009e-14 -21.0191 5.93213 -0.361107 3.45402 -1.44284 -5.52442 -0.00165743 0.903078 -0.126862 -2.22583e-10 -9.0156e-10 -6.52256e-10 -3.87311e-10 -1.56143e-09 -1.12773e-09 -2.22587e-10 -9.01559e-10 -6.52245e-10 -7.73091 5.47488 -0.417314 -2.22583e-10 -9.0156e-10 -6.52255e-10 -2.90554 0.965183 -0.102902 -2.22587e-10 -9.0156e-10 -6.52251e-10 -10.2786 0.731801 -0.0259123 -2.22578e-10 -9.01559e-10 -6.52253e-10 -2.22167 -0.733487 0.20892 -2.03217e-16 0.0 -3.88251e-19 1.21264 -12.2721 1.74976 0.00648299 4.5196 0.0537605 -0.684965 -2.15296 -0.870019 2.03217e-16 0.0 3.88251e-19 -0.887995 -9.42273 -1.67673 0.0123211 1.21157 0.0526321 0.580422 2.12639 -1.68519
98.131 83.6974 125.64 178.215 -3.0921 -153.251 -2.73821 -17.8632 -1.98188 2.02239 8.38593 -0.839875 -0.617421 6.60576 -1.15228 4.16182 -7.7974 -2.34544 -0.0 0.0 0.0 -0.0 0.0 0.0 5.4678e-14 4.10455e-14 1.51489e-13 47.3108 3.88189 -4.03298 -9.88075 -5.13986 16.1277 -0.00113188 -2.02885 -0.285124 2.05369e-10 1.38702e-10 1.46661e-09 3.55517e-10 2.42683e-10 2.54053e-09 2.05388e-10 1.38698e-10 1.4666e-09 7.73091 5.47488 0.417314 2.05369e-10 1.387e-10 1.46661e-09 2.90554 0.965183 0.102902 2.05373e-10 1.38701e-10 1.4666e-09 10.2786 0.731801 0.0259123 2.05362e-10 1.38706e-10 1.46661e-09 2.22167 -0.733487 -0.20892 5.44832e-14 4.10467e-14 1.51328e-13 -43.1547 12.204 -0.758705 6.80296 -2.92251 -11.3734 0.000940519 1.85731 -0.261018 -4.6637e-10 -1.90065e-09 -1.36684e-09 -8.11535e-10 -3.29178e-09 -2.36322e-09 -4.66375e-10 -1.90064e-09 -1.36683e-09 -7.73091 5.47488 -0.417314 -4.66371e-10 -1.90065e-09 -1.36684e-09 -2.90554 0.965183 -0.102902 -4.66377e-10 -1.90065e-09 -1.36684e-09 -10.2786 0.731801 -0.0259123 -4.66368e-10 -1.90065e-09 -1.36684e-09 -2.22167 -0.733487 0.20892 -2.03217e-16 0.0 -3.88251e-19 2.27238 -20.8044 3.83568 0.00910553 7.17659 0.13062 -1.07963 -6.71571 -1.90437 2.03217e-16 0.0 3.88251e-19 -2.13873 -16.6572 -3.58117 0.0184977 3.45971 0.0426476 0.634598 0.700172 -3.34359
98.1416 83.7269 125.648 178.239 -3.0802 -153.217 -4.64015 -26.0312 -3.06493 2.983 12.23 -1.24838 -0.80078 9.62317 -1.69356 5.83959 -11.3595 -3.45866 -0.0 0.0 0.0 -0.0 0.0 0.0 7.83652e-14 5.51226e-14 2.15149e-13 69.1782 5.63623 -5.89445 -13.4542 -7.15277 23.6134 -0.00836459 -2.95171 -0.415115 3.02632e-10 1.89808e-10 2.09458e-09 5.23879e-10 3.32293e-10 3.62831e-09 3.02657e-10 1.89803e-10 2.09457e-09 7.73091 5.47488 0.417314 3.0263e-10 1.89806e-10 2.09458e-09 2.90554 0.965183 0.102902 3.02632e-10 1.89807e-10 2.09458e-09 10.2786 0.731801 0.0259123 3.02625e-10 1.89814e-10 2.09458e-09 2.22167 -0.733487 -0.20892 7.813e-14 5.51243e-14 2.15002e-13 -62.8234 17.7935 -1.13166 9.53842 -4.16783 -16.6132 0.00703643 2.70918 -0.380966 -6.52898e-10 -2.70458e-09 -1.95647e-09 -1.13632e-09 -4.68413e-09 -3.38268e-09 -6.52902e-10 -2.70458e-09 -1.95646e-09 -7.73091 5.47488 -0.417314 -6.52898e-10 -2.70458e-09 -1.95647e-09 -2.90554 0.965183 -0.102902 -6.52906e-10 -2.70458e-09 -1.95647e-09 -10.2786 0.731801 -0.0259123 -6.52897e-10 -2.70458e-09 -1.95647e-09 -2.22167 -0.733487 0.20892 -2.03217e-16 0.0 -3.88251e-19 3.81843 -28.3586 5.98018 0.00555852 9.54795 0.200145 -1.57289 -10.7805 -2.8508 2.03217e-16 0.0 3.88251e-19 -3.69389 -23.0663 -5.45137 0.0247523 5.46278 0.0337606 0.61441 -0.565188 -4.81051
98.1432 83.7186 125.651 178.241 -3.0921 -153.226 -6.17586 -31.7115 -3.93787 3.68487 14.9068 -1.54065 -0.859256 11.6956 -2.08062 6.87915 -13.8315 -4.2659 -0.0 0.0 0.0 -0.0 0.0 0.0 8.8635e-14 4.7706e-14 2.38691e-13 84.4865 6.81612 -7.1934 -15.6161 -8.33531 28.8662 -0.015652 -3.56947 -0.502313 3.69423e-10 1.79998e-10 2.37124e-09 6.39491e-10 3.15947e-10 4.10745e-09 3.6945e-10 1.79992e-10 2.37123e-09 7.73091 5.47488 0.417314 3.69421e-10 1.79996e-10 2.37124e-09 2.90554 0.965183 0.102902 3.69422e-10 1.79997e-10 2.37124e-09 10.2786 0.731801 0.0259123 3.69416e-10 1.80004e-10 2.37124e-09 2.22167 -0.733487 -0.20892 8.83886e-14 4.77081e-14 2.38542e-13 -76.496 21.6797 -1.3962 11.3152 -4.97977 -20.292 0.0134168 3.30518 -0.465034 -6.96275e-10 -3.02064e-09 -2.23371e-09 -1.21251e-09 -5.23149e-09 -3.86202e-09 -6.96279e-10 -3.02063e-09 -2.23369e-09 -7.73091 5.47488 -0.417314 -6.96275e-10 -3.02064e-09 -2.23371e-09 -2.90554 0.965183 -0.102902 -6.96283e-10 -3.02064e-09 -2.23371e-09 -10.2786 0.731801 -0.0259123 -6.96274e-10 -3.02064e-09 -2.23371e-09 -2.22167 -0.733487 0.20892 -2.03217e-16 0.0 -3.88251e-19 5.30936 -33.5732 7.72995 0.000212833 11.2053 0.24933 -1.99727 -13.6126 -3.52692 2.03217e-16 0.0 3.88251e-19 -5.05022 -27.4885 -6.89758 0.0297163 6.85317 0.0275612 0.565729 -1.43489 -5.79806
98.1402 83.7098 125.649 178.228 -3.0956 -153.251 -6.81089 -33.9297 -4.28884 3.96243 15.9503 -1.65068 -0.785361 12.4354 -2.24033 7.14892 -14.7812 -4.61395 -0.0 0.0 0.0 -0.0 0.0 0.0 7.71086e-14 7.31255e-16 1.98903e-13 90.4894 7.19816 -7.6832 -16.3801 -8.72671 30.8968 -0.0184013 -3.75116 -0.528001 3.97803e-10 8.05301e-11 2.10364e-09 6.88574e-10 1.43695e-10 3.64359e-09 3.97827e-10 8.05244e-11 2.10363e-09 7.73091 5.47488 0.417314 3.97801e-10 8.0528e-11 2.10364e-09 2.90554 0.965183 0.102902 3.97802e-10 8.05289e-11 2.10363e-09 10.2786 0.731801 0.0259123 3.97799e-10 8.05353e-11 2.10364e-09 2.22167 -0.733487 -0.20892 7.68955e-14 7.33344e-16 1.98725e-13 -81.8582 23.1795 -1.47302 11.9951 -5.29072 -21.7634 0.0164623 3.54611 -0.499059 -5.03709e-10 -2.56596e-09 -2.01985e-09 -8.79107e-10 -4.44391e-09 -3.49225e-09 -5.03712e-10 -2.56595e-09 -2.01983e-09 -7.73091 5.47488 -0.417314 -5.03707e-10 -2.56595e-09 -2.01985e-09 -2.90554 0.965183 -0.102902 -5.03716e-10 -2.56595e-09 -2.01985e-09 -10.2786 0.731801 -0.0259123 -5.03707e-10 -2.56596e-09 -2.01985e-09 -2.22167 -0.733487 0.20892 -2.03217e-16 0.0 -3.88251e-19 6.02478 -35.6017 8.51086 -0.00117271 11.8729 0.269038 -2.17964 -14.7451 -3.78347 2.03217e-16 0.0 3.88251e-19 -5.62598 -29.1811 -7.49621 0.0322444 7.38369 0.0252176 0.548498 -1.75242 -6.0907
98.1421 83.7124 125.625 178.228 -3.0604 -153.268 -6.69689 -33.6821 -4.19462 3.92269 15.8278 -1.62544 -0.63233 12.2246 -2.23338 6.90672 -14.6474 -4.62124 -0.0 0.0 0.0 -0.0 0.0 0.0 5.0157e-14 -7.40485e-14 1.1422e-13 89.8188 7.01576 -7.59077 -16.2675 -8.65824 30.6062 -0.0170252 -3.62179 -0.509733 3.98544e-10 -8.27716e-11 1.44977e-09 6.89788e-10 -1.39558e-10 2.5105e-09 3.98561e-10 -8.27756e-11 1.44976e-09 7.73091 5.47488 0.417314 3.98543e-10 -8.27733e-11 1.44977e-09 2.90554 0.965183 0.102902 3.98546e-10 -8.27726e-11 1.44977e-09 10.2786 0.731801 0.0259123 3.98544e-10 -8.27678e-11 1.44977e-09 2.22167 -0.733487 -0.20892 5.00089e-14 -7.40467e-14 1.13994e-13 -81.304 22.9754 -1.40573 11.9467 -5.27445 -21.6516 0.0162381 3.53328 -0.497245 -1.44304e-10 -1.56492e-09 -1.45776e-09 -2.56076e-10 -2.71004e-09 -2.52039e-09 -1.44305e-10 -1.56491e-09 -1.45774e-09 -7.73091 5.47488 -0.417314 -1.443e-10 -1.56491e-09 -1.45776e-09 -2.90554 0.965183 -0.102902 -1.44309e-10 -1.56491e-09 -1.45776e-09 -10.2786 0.731801 -0.0259123 -1.44301e-10 -1.56491e-09 -1.45777e-09 -2.22167 -0.733487 0.20892 -2.03217e-16 0.0 -3.88251e-19 5.98582 -35.3813 8.46122 0.00172712 11.8331 0.267298 -2.15415 -14.6656 -3.72831 2.03217e-16 0.0 3.88251e-19 -5.5145 -28.9418 -7.41161 0.0328788 7.3001 0.0256334 0.568391 -1.67737 -5.88699
98.1478 83.7147 125.61 178.275 -2.9897 -153.283 -6.2986 -32.4506 -3.93679 3.75971 15.2399 -1.54926 -0.478006 11.653 -2.15509 6.50239 -14.0941 -4.47563 -0.0 0.0 0.0 -0.0 0.0 0.0 2.18541e-14 -1.44803e-13 2.30435e-14 86.4806 6.62543 -7.2734 -15.807 -8.40839 29.3987 -0.014349 -3.38239 -0.475934 3.81432e-10 -2.64605e-10 7.25269e-10 6.60139e-10 -4.55101e-10 1.25511e-09 3.8144e-10 -2.64608e-10 7.25256e-10 7.73091 5.47488 0.417314 3.81431e-10 -2.64607e-10 7.25269e-10 2.90554 0.965183 0.102902 3.81435e-10 -2.64606e-10 7.25269e-10 10.2786 0.731801 0.0259123 3.81435e-10 -2.64603e-10 7.25272e-10 2.22167 -0.733487 -0.20892 2.17775e-14 -1.44802e-13 2.27698e-14 -78.3805 22.096 -1.28313 11.6067 -5.12692 -20.9041 0.0146445 3.41398 -0.480391 2.24984e-10 -4.85686e-10 -8.42383e-10 3.84327e-10 -8.40781e-10 -1.45643e-09 2.24984e-10 -4.8568e-10 -8.42369e-10 -7.73091 5.47488 -0.417314 2.2499e-10 -4.85678e-10 -8.42384e-10 -2.90554 0.965183 -0.102902 2.24982e-10 -4.85678e-10 -8.42384e-10 -10.2786 0.731801 -0.0259123 2.24989e-10 -4.85678e-10 -8.42396e-10 -2.22167 -0.733487 0.20892 -2.03217e-16 0.0 -3.88251e-19 5.63106 -34.2509 8.06922 0.00587952 11.4945 0.256467 -2.04522 -14.0744 -3.5509 2.03217e-16 0.0 3.88251e-19 -5.14085 -27.9383 -7.05812 0.0327093 6.97429 0.027024 0.598119 -1.45147 -5.5185
